<?xml version="1.0" encoding="UTF-8" standalone="no"?>
<!DOCTYPE svg PUBLIC "-//W3C//DTD SVG 1.1//EN" "http://www.w3.org/Graphics/SVG/1.1/DTD/svg11.dtd">
<svg width="100%" height="100%" viewBox="0 0 100 100" version="1.1" xmlns="http://www.w3.org/2000/svg" xmlns:xlink="http://www.w3.org/1999/xlink" xml:space="preserve" xmlns:serif="http://www.serif.com/" style="fill-rule:evenodd;clip-rule:evenodd;stroke-linejoin:round;stroke-miterlimit:2;">
    <g transform="matrix(4.16667,0,0,4.16667,50,50)">
        <g id="Icon--1-" serif:id="Icon (1)" transform="matrix(1,0,0,1,-12,-12)">
            <g>
                <path id="angle-right" d="M15.02,12C15.02,11.91 14.98,11.82 14.92,11.76L10.09,6.91C9.96,6.78 9.75,6.77 9.62,6.9L9.09,7.43C8.95,7.56 8.95,7.76 9.07,7.9L9.08,7.91L13.18,12L9.08,16.09C8.95,16.22 8.94,16.42 9.07,16.56L9.6,17.09C9.73,17.22 9.93,17.23 10.07,17.1L14.93,12.24C14.99,12.17 15.02,12.09 15.02,12Z" style="fill:white;fill-rule:nonzero;"/>
            </g>
        </g>
    </g>
</svg>
